<svg width="1920" height="287" viewBox="0 0 1920 287" fill="none" xmlns="http://www.w3.org/2000/svg">
<path d="M177.927 261L177.927 128H199.547L218.748 113.092V90H60V113.092L80.5721 128H102.333L102.333 261H177.927Z" fill="#AE2722"/>
<path d="M585.675 261V128H607.295L626.495 113.092V90H467.748V113.092L488.32 128H510.081V261H585.675Z" fill="#AE2722"/>
<path d="M993.423 261V128H1015.04L1034.24 113.092V90H875.495V113.092L896.068 128H917.828V261H993.423Z" fill="#AE2722"/>
<path d="M1401.17 261V128H1422.79L1441.99 113.092V90H1283.24V113.092L1303.82 128H1325.58V261H1401.17Z" fill="#AE2722"/>
<path d="M1808.92 261V128H1830.54L1849.74 113.092V90H1690.99V113.092L1711.56 128H1733.32V261H1808.92Z" fill="#AE2722"/>
<rect y="37" width="1920" height="53" fill="#52190F"/>
<rect width="1920" height="14" fill="#6E2118"/>
<rect y="261" width="1920" height="26" fill="#960912"/>
</svg>
