<svg width="1992" height="143" viewBox="0 0 1992 143" fill="none" xmlns="http://www.w3.org/2000/svg">
<rect x="121.111" y="2.11865" width="39.9764" height="11.6522" fill="#6E2118"/>
<rect x="382.01" y="2.11865" width="39.9764" height="11.6522" fill="#6E2118"/>
<path d="M218.948 1.64372L262.396 0L307.317 1.64372V15.8893H218.948V1.64372Z" fill="#6E2118"/>
<path d="M11 106H493V131H18.303L11 106Z" fill="#8B2A21"/>
<ellipse cx="97.4705" cy="123.243" rx="18.118" ry="18.2433" fill="#6E2118"/>
<path d="M109.917 123.243C109.917 130.167 104.343 135.778 97.4702 135.778C90.5976 135.778 85.0236 130.167 85.0236 123.243C85.0236 116.319 90.5976 110.709 97.4702 110.709C104.343 110.709 109.917 116.319 109.917 123.243Z" stroke="#8B2A21" stroke-width="0.47191"/>
<ellipse cx="367.118" cy="123.243" rx="18.118" ry="18.2433" fill="#6E2118"/>
<path d="M379.564 123.243C379.564 130.167 373.99 135.778 367.118 135.778C360.245 135.778 354.671 130.167 354.671 123.243C354.671 116.319 360.245 110.709 367.118 110.709C373.99 110.709 379.564 116.319 379.564 123.243Z" stroke="#8B2A21" stroke-width="0.47191"/>
<ellipse cx="173.706" cy="123.243" rx="18.118" ry="18.2433" fill="#6E2118"/>
<path d="M186.152 123.243C186.152 130.167 180.578 135.778 173.706 135.778C166.833 135.778 161.259 130.167 161.259 123.243C161.259 116.319 166.833 110.709 173.706 110.709C180.578 110.709 186.152 116.319 186.152 123.243Z" stroke="#8B2A21" stroke-width="0.47191"/>
<ellipse cx="443.354" cy="123.243" rx="18.118" ry="18.2433" fill="#6E2118"/>
<path d="M455.801 123.243C455.801 130.167 450.226 135.778 443.354 135.778C436.481 135.778 430.907 130.167 430.907 123.243C430.907 116.319 436.481 110.709 443.354 110.709C450.226 110.709 455.801 116.319 455.801 123.243Z" stroke="#8B2A21" stroke-width="0.47191"/>
<path d="M53.9978 17.7375C56.9046 12.9344 62.1105 10 67.7247 10H113.751H182.895H485.449C489.619 10 493 13.3805 493 17.5506V114.203H250.996H238.169H217.218H186.967H126.466H96.2158H81.0906L67.7825 127H16.6879H13.7753C11.6903 127 10 125.31 10 123.225V99.3918C10 93.5341 11.6033 87.7882 14.6362 82.7769L53.9978 17.7375Z" fill="#A7322A"/>
<path d="M55.1135 14.3364C57.8419 9.78519 62.759 7 68.0654 7H114.985H183.819H486.033C489.899 7 493.033 10.134 493.033 14V75.7087H251.614H238.845H217.988H187.873H127.643H97.5281H82.4706H61.3159L10.033 99C10.033 99 9.80816 95.4949 10.5329 92C10.9607 89.9367 12.3386 86.5777 13.352 84.2636C14.0995 82.5569 14.9893 80.92 15.9553 79.3268L33.3499 50.6393L55.1135 14.3364Z" fill="#6E2118"/>
<path d="M50.7919 75.2249L12 90.0578L11 98.5578L50.2955 82.9574C61.3791 78.5572 73.1962 76.2973 85.1213 76.2973H492.843V69H84.5007C72.9787 69 61.554 71.1097 50.7919 75.2249Z" fill="white"/>
<rect x="101.094" y="7.41507" width="50.7303" height="94.8651" fill="#A7322A"/>
<rect x="108.341" y="26" width="16.3062" height="43.7839" rx="1.88764" fill="#FFA9A6"/>
<rect x="157" y="31" width="32.6123" height="34.6623" rx="1.88764" fill="#FFA9A6"/>
<rect x="287" y="31" width="32.6123" height="34.6623" rx="1.88764" fill="#FFA9A6"/>
<rect x="418" y="31" width="32.6123" height="34.6623" rx="1.88764" fill="#FFA9A6"/>
<rect x="194.612" y="31" width="32.6123" height="34.6623" rx="1.88764" fill="#FFA9A6"/>
<rect x="324.612" y="31" width="32.6123" height="34.6623" rx="1.88764" fill="#FFA9A6"/>
<rect x="455.842" y="31" width="32.6123" height="34.6623" rx="1.88764" fill="#FFA9A6"/>
<rect x="130.083" y="26" width="16.3062" height="43.7839" rx="1.88764" fill="#FFA9A6"/>
<rect x="231.543" y="7.41507" width="50.7303" height="94.8651" fill="#A7322A"/>
<rect x="361.993" y="7.41507" width="50.7303" height="94.8651" fill="#A7322A"/>
<path d="M24.1461 68.3494L30.482 64.6867L49.4896 37.2169L66.605 11.2448C68.3513 8.59488 71.3123 7 74.4859 7H486C489.866 7 493 10.134 493 14V22.5663H87.4033C79.5458 22.5663 72.2039 26.4776 67.8206 32.9988L59.4459 45.4578L39.5332 74.759L16 83L24.1461 68.3494Z" fill="#A7322A"/>
<rect x="236.979" y="26" width="16.3062" height="43.7839" rx="1.88764" fill="#FFA9A6"/>
<rect x="369.239" y="26" width="16.3062" height="43.7839" rx="1.88764" fill="#FFA9A6"/>
<rect x="258.72" y="26" width="16.3062" height="43.7839" rx="1.88764" fill="#FFA9A6"/>
<rect x="390.981" y="26" width="16.3062" height="43.7839" rx="1.88764" fill="#FFA9A6"/>
<path d="M55.7984 114.294L48 126.804H68.3062L80.9887 114.034H493.172V104H71.4679C70.0012 104 68.5714 104.461 67.3807 105.317L57.6514 112.315C56.9106 112.848 56.2811 113.52 55.7984 114.294Z" fill="white"/>
<path fill-rule="evenodd" clip-rule="evenodd" d="M9.5982 100.512H1.91964V104.378H0V115.975H1.91964V119.841H9.5982V100.512Z" fill="#6E2118"/>
<rect width="39.9764" height="11.6522" transform="matrix(-1 0 0 1 1870.06 3.11865)" fill="#6E2118"/>
<rect width="39.9764" height="11.6522" transform="matrix(-1 0 0 1 1609.16 3.11865)" fill="#6E2118"/>
<path d="M1772.22 2.64372L1728.78 1L1683.85 2.64372V16.8893H1772.22V2.64372Z" fill="#6E2118"/>
<path d="M1980.17 107H1498.17V132H1972.87L1980.17 107Z" fill="#8B2A21"/>
<ellipse cx="18.118" cy="18.2433" rx="18.118" ry="18.2433" transform="matrix(-1 0 0 1 1911.82 106)" fill="#6E2118"/>
<path d="M1881.26 124.243C1881.26 131.167 1886.83 136.778 1893.7 136.778C1900.57 136.778 1906.15 131.167 1906.15 124.243C1906.15 117.319 1900.57 111.709 1893.7 111.709C1886.83 111.709 1881.26 117.319 1881.26 124.243Z" stroke="#8B2A21" stroke-width="0.47191"/>
<ellipse cx="18.118" cy="18.2433" rx="18.118" ry="18.2433" transform="matrix(-1 0 0 1 1642.17 106)" fill="#6E2118"/>
<path d="M1611.61 124.243C1611.61 131.167 1617.18 136.778 1624.05 136.778C1630.93 136.778 1636.5 131.167 1636.5 124.243C1636.5 117.319 1630.93 111.709 1624.05 111.709C1617.18 111.709 1611.61 117.319 1611.61 124.243Z" stroke="#8B2A21" stroke-width="0.47191"/>
<ellipse cx="18.118" cy="18.2433" rx="18.118" ry="18.2433" transform="matrix(-1 0 0 1 1835.58 106)" fill="#6E2118"/>
<path d="M1805.02 124.243C1805.02 131.167 1810.59 136.778 1817.47 136.778C1824.34 136.778 1829.91 131.167 1829.91 124.243C1829.91 117.319 1824.34 111.709 1817.47 111.709C1810.59 111.709 1805.02 117.319 1805.02 124.243Z" stroke="#8B2A21" stroke-width="0.47191"/>
<ellipse cx="18.118" cy="18.2433" rx="18.118" ry="18.2433" transform="matrix(-1 0 0 1 1565.94 106)" fill="#6E2118"/>
<path d="M1535.37 124.243C1535.37 131.167 1540.95 136.778 1547.82 136.778C1554.69 136.778 1560.26 131.167 1560.26 124.243C1560.26 117.319 1554.69 111.709 1547.82 111.709C1540.95 111.709 1535.37 117.319 1535.37 124.243Z" stroke="#8B2A21" stroke-width="0.47191"/>
<path d="M1937.17 18.7375C1934.27 13.9344 1929.06 11 1923.45 11H1877.42H1808.28H1505.72C1501.55 11 1498.17 14.3805 1498.17 18.5506V115.203H1740.18H1753H1773.95H1804.2H1864.71H1894.96H1910.08L1923.39 128H1974.48H1977.4C1979.48 128 1981.17 126.31 1981.17 124.225V100.392C1981.17 94.5341 1979.57 88.7882 1976.54 83.7769L1937.17 18.7375Z" fill="#A7322A"/>
<path d="M1936.06 15.3364C1933.33 10.7852 1928.41 8 1923.11 8H1876.19H1807.35H1505.14C1501.27 8 1498.14 11.134 1498.14 15V76.7087H1739.56H1752.33H1773.18H1803.3H1863.53H1893.64H1908.7H1929.86L1981.14 100C1981.14 100 1981.36 96.4949 1980.64 93C1980.21 90.9367 1978.83 87.5777 1977.82 85.2636C1977.07 83.5569 1976.18 81.92 1975.22 80.3268L1957.82 51.6393L1936.06 15.3364Z" fill="#6E2118"/>
<path d="M1940.38 76.2249L1979.17 91.0578L1980.17 99.5578L1940.88 83.9574C1929.79 79.5572 1917.98 77.2973 1906.05 77.2973H1498.33V70H1906.67C1918.19 70 1929.62 72.1097 1940.38 76.2249Z" fill="white"/>
<rect width="50.7303" height="94.8651" transform="matrix(-1 0 0 1 1890.08 8.41507)" fill="#A7322A"/>
<rect width="16.3062" height="43.7839" rx="1.88764" transform="matrix(-1 0 0 1 1882.83 27)" fill="#FFA9A6"/>
<rect width="32.6123" height="34.6623" rx="1.88764" transform="matrix(-1 0 0 1 1834.17 32)" fill="#FFA9A6"/>
<rect width="32.6123" height="34.6623" rx="1.88764" transform="matrix(-1 0 0 1 1704.17 32)" fill="#FFA9A6"/>
<rect width="32.6123" height="34.6623" rx="1.88764" transform="matrix(-1 0 0 1 1573.17 32)" fill="#FFA9A6"/>
<rect width="32.6123" height="34.6623" rx="1.88764" transform="matrix(-1 0 0 1 1796.56 32)" fill="#FFA9A6"/>
<rect width="32.6123" height="34.6623" rx="1.88764" transform="matrix(-1 0 0 1 1666.56 32)" fill="#FFA9A6"/>
<rect width="32.6123" height="34.6623" rx="1.88764" transform="matrix(-1 0 0 1 1535.33 32)" fill="#FFA9A6"/>
<rect width="16.3062" height="43.7839" rx="1.88764" transform="matrix(-1 0 0 1 1861.09 27)" fill="#FFA9A6"/>
<rect width="50.7303" height="94.8651" transform="matrix(-1 0 0 1 1759.63 8.41507)" fill="#A7322A"/>
<rect width="50.7303" height="94.8651" transform="matrix(-1 0 0 1 1629.18 8.41507)" fill="#A7322A"/>
<path d="M1967.03 69.3494L1960.69 65.6867L1941.68 38.2169L1924.57 12.2448C1922.82 9.59488 1919.86 8 1916.69 8H1505.17C1501.31 8 1498.17 11.134 1498.17 15V23.5663H1903.77C1911.63 23.5663 1918.97 27.4776 1923.35 33.9988L1931.73 46.4578L1951.64 75.759L1975.17 84L1967.03 69.3494Z" fill="#A7322A"/>
<rect width="16.3062" height="43.7839" rx="1.88764" transform="matrix(-1 0 0 1 1754.19 27)" fill="#FFA9A6"/>
<rect width="16.3062" height="43.7839" rx="1.88764" transform="matrix(-1 0 0 1 1621.93 27)" fill="#FFA9A6"/>
<rect width="16.3062" height="43.7839" rx="1.88764" transform="matrix(-1 0 0 1 1732.45 27)" fill="#FFA9A6"/>
<rect width="16.3062" height="43.7839" rx="1.88764" transform="matrix(-1 0 0 1 1600.19 27)" fill="#FFA9A6"/>
<path d="M1935.37 115.294L1943.17 127.804H1922.87L1910.18 115.034H1498V105H1919.7C1921.17 105 1922.6 105.461 1923.79 106.317L1933.52 113.315C1934.26 113.848 1934.89 114.52 1935.37 115.294Z" fill="white"/>
<path fill-rule="evenodd" clip-rule="evenodd" d="M1981.57 101.512H1989.25V105.378H1991.17V116.975H1989.25V120.841H1981.57V101.512Z" fill="#6E2118"/>
<rect x="1485" y="23" width="13" height="91" fill="#A7322A"/>
<path d="M493 23H506V114H493V23Z" fill="#A7322A"/>
<rect x="617.611" y="2.11865" width="39.9764" height="11.6522" fill="#6E2118"/>
<rect x="878.51" y="2.11865" width="39.9764" height="11.6522" fill="#6E2118"/>
<path d="M715.448 1.64372L758.896 0L803.817 1.64372V15.8893H715.448V1.64372Z" fill="#6E2118"/>
<path d="M506 106H989V132H506V106Z" fill="#8B2A21"/>
<ellipse cx="569.118" cy="124.243" rx="18.118" ry="18.2433" fill="#6E2118"/>
<path d="M581.564 124.243C581.564 131.167 575.99 136.778 569.118 136.778C562.245 136.778 556.671 131.167 556.671 124.243C556.671 117.319 562.245 111.709 569.118 111.709C575.99 111.709 581.564 117.319 581.564 124.243Z" stroke="#8B2A21" stroke-width="0.47191"/>
<ellipse cx="839.118" cy="124.243" rx="18.118" ry="18.2433" fill="#6E2118"/>
<path d="M851.564 124.243C851.564 131.167 845.99 136.778 839.118 136.778C832.245 136.778 826.671 131.167 826.671 124.243C826.671 117.319 832.245 111.709 839.118 111.709C845.99 111.709 851.564 117.319 851.564 124.243Z" stroke="#8B2A21" stroke-width="0.47191"/>
<ellipse cx="645.354" cy="124.243" rx="18.118" ry="18.2433" fill="#6E2118"/>
<path d="M657.8 124.243C657.8 131.167 652.226 136.778 645.353 136.778C638.481 136.778 632.907 131.167 632.907 124.243C632.907 117.319 638.481 111.709 645.353 111.709C652.226 111.709 657.8 117.319 657.8 124.243Z" stroke="#8B2A21" stroke-width="0.47191"/>
<ellipse cx="915.354" cy="124.243" rx="18.118" ry="18.2433" fill="#6E2118"/>
<path d="M927.801 124.243C927.801 131.167 922.226 136.778 915.354 136.778C908.481 136.778 902.907 131.167 902.907 124.243C902.907 117.319 908.481 111.709 915.354 111.709C922.226 111.709 927.801 117.319 927.801 124.243Z" stroke="#8B2A21" stroke-width="0.47191"/>
<path d="M506.099 14.4151C506.099 10.5491 509.233 7.41507 513.099 7.41507H609.816H678.938H981.942C985.808 7.41507 988.942 10.5491 988.942 14.4151V111.402H747.016H734.193H713.249H683.009H622.527H592.286H577.166H563.862H506.099V87.6856V14.4151Z" fill="#A7322A"/>
<path d="M506 24H607.709H677.043H988V77H745.331H732.468H711.46H681.126H620.459H590.125H574.959H553.65H521.471H506V57.6622V24Z" fill="#6E2118"/>
<path d="M563.17 70H506V77.2973H563.17H988.942V70H563.17Z" fill="white"/>
<rect x="597.594" y="7.41507" width="50.7303" height="94.8651" fill="#A7322A"/>
<rect x="604.841" y="27" width="16.3062" height="43.7839" rx="1.88764" fill="#FFA9A6"/>
<rect x="654" y="32" width="32.6123" height="34.6623" rx="1.88764" fill="#FFA9A6"/>
<rect x="518" y="32" width="32.6123" height="34.6623" rx="1.88764" fill="#FFA9A6"/>
<rect x="784" y="32" width="32.6123" height="34.6623" rx="1.88764" fill="#FFA9A6"/>
<rect x="915" y="32" width="32.6123" height="34.6623" rx="1.88764" fill="#FFA9A6"/>
<rect x="690.236" y="32" width="32.6123" height="34.6623" rx="1.88764" fill="#FFA9A6"/>
<rect x="554.236" y="32" width="32.6123" height="34.6623" rx="1.88764" fill="#FFA9A6"/>
<rect x="820.236" y="32" width="32.6123" height="34.6623" rx="1.88764" fill="#FFA9A6"/>
<rect x="951.236" y="32" width="32.6123" height="34.6623" rx="1.88764" fill="#FFA9A6"/>
<rect x="626.583" y="27" width="16.3062" height="43.7839" rx="1.88764" fill="#FFA9A6"/>
<rect x="728.043" y="7.41507" width="50.7303" height="94.8651" fill="#A7322A"/>
<rect x="858.493" y="7.41507" width="50.7303" height="94.8651" fill="#A7322A"/>
<rect x="733.479" y="27" width="16.3062" height="43.7839" rx="1.88764" fill="#FFA9A6"/>
<rect x="865.739" y="27" width="16.3062" height="43.7839" rx="1.88764" fill="#FFA9A6"/>
<rect x="755.22" y="27" width="16.3062" height="43.7839" rx="1.88764" fill="#FFA9A6"/>
<rect x="887.481" y="27" width="16.3062" height="43.7839" rx="1.88764" fill="#FFA9A6"/>
<path d="M543.525 105H506V115H575.547H989V105H564.752H543.525Z" fill="white"/>
<rect x="121.111" y="2.11865" width="39.9764" height="11.6522" fill="#6E2118"/>
<rect x="382.01" y="2.11865" width="39.9764" height="11.6522" fill="#6E2118"/>
<path d="M218.948 1.64372L262.396 0L307.317 1.64372V15.8893H218.948V1.64372Z" fill="#6E2118"/>
<path d="M11 106H493V131H18.303L11 106Z" fill="#8B2A21"/>
<ellipse cx="97.4705" cy="123.243" rx="18.118" ry="18.2433" fill="#6E2118"/>
<path d="M109.917 123.243C109.917 130.167 104.343 135.778 97.4702 135.778C90.5976 135.778 85.0236 130.167 85.0236 123.243C85.0236 116.319 90.5976 110.709 97.4702 110.709C104.343 110.709 109.917 116.319 109.917 123.243Z" stroke="#8B2A21" stroke-width="0.47191"/>
<ellipse cx="367.118" cy="123.243" rx="18.118" ry="18.2433" fill="#6E2118"/>
<path d="M379.564 123.243C379.564 130.167 373.99 135.778 367.118 135.778C360.245 135.778 354.671 130.167 354.671 123.243C354.671 116.319 360.245 110.709 367.118 110.709C373.99 110.709 379.564 116.319 379.564 123.243Z" stroke="#8B2A21" stroke-width="0.47191"/>
<ellipse cx="173.706" cy="123.243" rx="18.118" ry="18.2433" fill="#6E2118"/>
<path d="M186.152 123.243C186.152 130.167 180.578 135.778 173.706 135.778C166.833 135.778 161.259 130.167 161.259 123.243C161.259 116.319 166.833 110.709 173.706 110.709C180.578 110.709 186.152 116.319 186.152 123.243Z" stroke="#8B2A21" stroke-width="0.47191"/>
<ellipse cx="443.354" cy="123.243" rx="18.118" ry="18.2433" fill="#6E2118"/>
<path d="M455.801 123.243C455.801 130.167 450.226 135.778 443.354 135.778C436.481 135.778 430.907 130.167 430.907 123.243C430.907 116.319 436.481 110.709 443.354 110.709C450.226 110.709 455.801 116.319 455.801 123.243Z" stroke="#8B2A21" stroke-width="0.47191"/>
<path d="M53.9978 17.7375C56.9046 12.9344 62.1105 10 67.7247 10H113.751H182.895H485.449C489.619 10 493 13.3805 493 17.5506V114.203H250.996H238.169H217.218H186.967H126.466H96.2158H81.0906L67.7825 127H16.6879H13.7753C11.6903 127 10 125.31 10 123.225V99.3918C10 93.5341 11.6033 87.7882 14.6362 82.7769L53.9978 17.7375Z" fill="#A7322A"/>
<path d="M55.1135 14.3364C57.8419 9.78519 62.759 7 68.0654 7H114.985H183.819H486.033C489.899 7 493.033 10.134 493.033 14V75.7087H251.614H238.845H217.988H187.873H127.643H97.5281H82.4706H61.3159L10.033 99C10.033 99 9.80816 95.4949 10.5329 92C10.9607 89.9367 12.3386 86.5777 13.352 84.2636C14.0995 82.5569 14.9893 80.92 15.9553 79.3268L33.3499 50.6393L55.1135 14.3364Z" fill="#6E2118"/>
<path d="M50.7919 75.2249L12 90.0578L11 98.5578L50.2955 82.9574C61.3791 78.5572 73.1962 76.2973 85.1213 76.2973H492.843V69H84.5007C72.9787 69 61.554 71.1097 50.7919 75.2249Z" fill="white"/>
<rect x="101.094" y="7.41507" width="50.7303" height="94.8651" fill="#A7322A"/>
<rect x="108.341" y="26" width="16.3062" height="43.7839" rx="1.88764" fill="#FFA9A6"/>
<rect x="157" y="31" width="32.6123" height="34.6623" rx="1.88764" fill="#FFA9A6"/>
<rect x="287" y="31" width="32.6123" height="34.6623" rx="1.88764" fill="#FFA9A6"/>
<rect x="418" y="31" width="32.6123" height="34.6623" rx="1.88764" fill="#FFA9A6"/>
<rect x="194.612" y="31" width="32.6123" height="34.6623" rx="1.88764" fill="#FFA9A6"/>
<rect x="324.612" y="31" width="32.6123" height="34.6623" rx="1.88764" fill="#FFA9A6"/>
<rect x="455.842" y="31" width="32.6123" height="34.6623" rx="1.88764" fill="#FFA9A6"/>
<rect x="130.083" y="26" width="16.3062" height="43.7839" rx="1.88764" fill="#FFA9A6"/>
<rect x="231.543" y="7.41507" width="50.7303" height="94.8651" fill="#A7322A"/>
<rect x="361.993" y="7.41507" width="50.7303" height="94.8651" fill="#A7322A"/>
<path d="M24.1461 68.3494L30.482 64.6867L49.4896 37.2169L66.605 11.2448C68.3513 8.59488 71.3123 7 74.4859 7H486C489.866 7 493 10.134 493 14V22.5663H87.4033C79.5458 22.5663 72.2039 26.4776 67.8206 32.9988L59.4459 45.4578L39.5332 74.759L16 83L24.1461 68.3494Z" fill="#A7322A"/>
<rect x="236.979" y="26" width="16.3062" height="43.7839" rx="1.88764" fill="#FFA9A6"/>
<rect x="369.239" y="26" width="16.3062" height="43.7839" rx="1.88764" fill="#FFA9A6"/>
<rect x="258.72" y="26" width="16.3062" height="43.7839" rx="1.88764" fill="#FFA9A6"/>
<rect x="390.981" y="26" width="16.3062" height="43.7839" rx="1.88764" fill="#FFA9A6"/>
<path d="M55.7984 114.294L48 126.804H68.3062L80.9887 114.034H493.172V104H71.4679C70.0012 104 68.5714 104.461 67.3807 105.317L57.6514 112.315C56.9106 112.848 56.2811 113.52 55.7984 114.294Z" fill="white"/>
<path fill-rule="evenodd" clip-rule="evenodd" d="M9.5982 100.512H1.91964V104.378H0V115.975H1.91964V119.841H9.5982V100.512Z" fill="#6E2118"/>
<path d="M493 23H506V114H493V23Z" fill="#A7322A"/>
<rect x="617.611" y="2.11865" width="39.9764" height="11.6522" fill="#6E2118"/>
<rect x="878.51" y="2.11865" width="39.9764" height="11.6522" fill="#6E2118"/>
<path d="M715.448 1.64372L758.896 0L803.817 1.64372V15.8893H715.448V1.64372Z" fill="#6E2118"/>
<path d="M506 106H989V132H506V106Z" fill="#8B2A21"/>
<ellipse cx="569.118" cy="124.243" rx="18.118" ry="18.2433" fill="#6E2118"/>
<path d="M581.564 124.243C581.564 131.167 575.99 136.778 569.118 136.778C562.245 136.778 556.671 131.167 556.671 124.243C556.671 117.319 562.245 111.709 569.118 111.709C575.99 111.709 581.564 117.319 581.564 124.243Z" stroke="#8B2A21" stroke-width="0.47191"/>
<ellipse cx="839.118" cy="124.243" rx="18.118" ry="18.2433" fill="#6E2118"/>
<path d="M851.564 124.243C851.564 131.167 845.99 136.778 839.118 136.778C832.245 136.778 826.671 131.167 826.671 124.243C826.671 117.319 832.245 111.709 839.118 111.709C845.99 111.709 851.564 117.319 851.564 124.243Z" stroke="#8B2A21" stroke-width="0.47191"/>
<ellipse cx="645.354" cy="124.243" rx="18.118" ry="18.2433" fill="#6E2118"/>
<path d="M657.8 124.243C657.8 131.167 652.226 136.778 645.353 136.778C638.481 136.778 632.907 131.167 632.907 124.243C632.907 117.319 638.481 111.709 645.353 111.709C652.226 111.709 657.8 117.319 657.8 124.243Z" stroke="#8B2A21" stroke-width="0.47191"/>
<ellipse cx="915.354" cy="124.243" rx="18.118" ry="18.2433" fill="#6E2118"/>
<path d="M927.801 124.243C927.801 131.167 922.226 136.778 915.354 136.778C908.481 136.778 902.907 131.167 902.907 124.243C902.907 117.319 908.481 111.709 915.354 111.709C922.226 111.709 927.801 117.319 927.801 124.243Z" stroke="#8B2A21" stroke-width="0.47191"/>
<path d="M506.099 14.4151C506.099 10.5491 509.233 7.41507 513.099 7.41507H609.816H678.938H981.942C985.808 7.41507 988.942 10.5491 988.942 14.4151V111.402H747.016H734.193H713.249H683.009H622.527H592.286H577.166H563.862H506.099V87.6856V14.4151Z" fill="#A7322A"/>
<path d="M506 24H607.709H677.043H988V77H745.331H732.468H711.46H681.126H620.459H590.125H574.959H553.65H521.471H506V57.6622V24Z" fill="#6E2118"/>
<path d="M563.17 70H506V77.2973H563.17H988.942V70H563.17Z" fill="white"/>
<rect x="597.594" y="7.41507" width="50.7303" height="94.8651" fill="#A7322A"/>
<rect x="604.841" y="27" width="16.3062" height="43.7839" rx="1.88764" fill="#FFA9A6"/>
<rect x="654" y="32" width="32.6123" height="34.6623" rx="1.88764" fill="#FFA9A6"/>
<rect x="518" y="32" width="32.6123" height="34.6623" rx="1.88764" fill="#FFA9A6"/>
<rect x="784" y="32" width="32.6123" height="34.6623" rx="1.88764" fill="#FFA9A6"/>
<rect x="915" y="32" width="32.6123" height="34.6623" rx="1.88764" fill="#FFA9A6"/>
<rect x="690.236" y="32" width="32.6123" height="34.6623" rx="1.88764" fill="#FFA9A6"/>
<rect x="554.236" y="32" width="32.6123" height="34.6623" rx="1.88764" fill="#FFA9A6"/>
<rect x="820.236" y="32" width="32.6123" height="34.6623" rx="1.88764" fill="#FFA9A6"/>
<rect x="951.236" y="32" width="32.6123" height="34.6623" rx="1.88764" fill="#FFA9A6"/>
<rect x="626.583" y="27" width="16.3062" height="43.7839" rx="1.88764" fill="#FFA9A6"/>
<rect x="728.043" y="7.41507" width="50.7303" height="94.8651" fill="#A7322A"/>
<rect x="858.493" y="7.41507" width="50.7303" height="94.8651" fill="#A7322A"/>
<rect x="733.479" y="27" width="16.3062" height="43.7839" rx="1.88764" fill="#FFA9A6"/>
<rect x="865.739" y="27" width="16.3062" height="43.7839" rx="1.88764" fill="#FFA9A6"/>
<rect x="755.22" y="27" width="16.3062" height="43.7839" rx="1.88764" fill="#FFA9A6"/>
<rect x="887.481" y="27" width="16.3062" height="43.7839" rx="1.88764" fill="#FFA9A6"/>
<path d="M543.525 105H506V115H575.547H989V105H564.752H543.525Z" fill="white"/>
<path d="M989 23H1002V114H989V23Z" fill="#A7322A"/>
<rect x="1113.61" y="2.11865" width="39.9764" height="11.6522" fill="#6E2118"/>
<rect x="1374.51" y="2.11865" width="39.9764" height="11.6522" fill="#6E2118"/>
<path d="M1211.45 1.64372L1254.9 0L1299.82 1.64372V15.8893H1211.45V1.64372Z" fill="#6E2118"/>
<path d="M1002 106H1485V132H1002V106Z" fill="#8B2A21"/>
<ellipse cx="1065.12" cy="124.243" rx="18.118" ry="18.2433" fill="#6E2118"/>
<path d="M1077.56 124.243C1077.56 131.167 1071.99 136.778 1065.12 136.778C1058.25 136.778 1052.67 131.167 1052.67 124.243C1052.67 117.319 1058.25 111.709 1065.12 111.709C1071.99 111.709 1077.56 117.319 1077.56 124.243Z" stroke="#8B2A21" stroke-width="0.47191"/>
<ellipse cx="1335.12" cy="124.243" rx="18.118" ry="18.2433" fill="#6E2118"/>
<path d="M1347.56 124.243C1347.56 131.167 1341.99 136.778 1335.12 136.778C1328.25 136.778 1322.67 131.167 1322.67 124.243C1322.67 117.319 1328.25 111.709 1335.12 111.709C1341.99 111.709 1347.56 117.319 1347.56 124.243Z" stroke="#8B2A21" stroke-width="0.47191"/>
<ellipse cx="1141.35" cy="124.243" rx="18.118" ry="18.2433" fill="#6E2118"/>
<path d="M1153.8 124.243C1153.8 131.167 1148.23 136.778 1141.35 136.778C1134.48 136.778 1128.91 131.167 1128.91 124.243C1128.91 117.319 1134.48 111.709 1141.35 111.709C1148.23 111.709 1153.8 117.319 1153.8 124.243Z" stroke="#8B2A21" stroke-width="0.47191"/>
<ellipse cx="1411.35" cy="124.243" rx="18.118" ry="18.2433" fill="#6E2118"/>
<path d="M1423.8 124.243C1423.8 131.167 1418.23 136.778 1411.35 136.778C1404.48 136.778 1398.91 131.167 1398.91 124.243C1398.91 117.319 1404.48 111.709 1411.35 111.709C1418.23 111.709 1423.8 117.319 1423.8 124.243Z" stroke="#8B2A21" stroke-width="0.47191"/>
<path d="M1002.1 14.4151C1002.1 10.5491 1005.23 7.41507 1009.1 7.41507H1105.82H1174.94H1477.94C1481.81 7.41507 1484.94 10.5491 1484.94 14.4151V111.402H1243.02H1230.19H1209.25H1179.01H1118.53H1088.29H1073.17H1059.86H1002.1V87.6856V14.4151Z" fill="#A7322A"/>
<path d="M1002 24H1103.71H1173.04H1484V77H1241.33H1228.47H1207.46H1177.13H1116.46H1086.13H1070.96H1049.65H1017.47H1002V57.6622V24Z" fill="#6E2118"/>
<path d="M1059.17 70H1002V77.2973H1059.17H1484.94V70H1059.17Z" fill="white"/>
<rect x="1093.59" y="7.41507" width="50.7303" height="94.8651" fill="#A7322A"/>
<rect x="1100.84" y="27" width="16.3062" height="43.7839" rx="1.88764" fill="#FFA9A6"/>
<rect x="1150" y="32" width="32.6123" height="34.6623" rx="1.88764" fill="#FFA9A6"/>
<rect x="1014" y="32" width="32.6123" height="34.6623" rx="1.88764" fill="#FFA9A6"/>
<rect x="1280" y="32" width="32.6123" height="34.6623" rx="1.88764" fill="#FFA9A6"/>
<rect x="1411" y="32" width="32.6123" height="34.6623" rx="1.88764" fill="#FFA9A6"/>
<rect x="1186.24" y="32" width="32.6123" height="34.6623" rx="1.88764" fill="#FFA9A6"/>
<rect x="1050.24" y="32" width="32.6123" height="34.6623" rx="1.88764" fill="#FFA9A6"/>
<rect x="1316.24" y="32" width="32.6123" height="34.6623" rx="1.88764" fill="#FFA9A6"/>
<rect x="1447.24" y="32" width="32.6123" height="34.6623" rx="1.88764" fill="#FFA9A6"/>
<rect x="1122.58" y="27" width="16.3062" height="43.7839" rx="1.88764" fill="#FFA9A6"/>
<rect x="1224.04" y="7.41507" width="50.7303" height="94.8651" fill="#A7322A"/>
<rect x="1354.49" y="7.41507" width="50.7303" height="94.8651" fill="#A7322A"/>
<rect x="1229.48" y="27" width="16.3062" height="43.7839" rx="1.88764" fill="#FFA9A6"/>
<rect x="1361.74" y="27" width="16.3062" height="43.7839" rx="1.88764" fill="#FFA9A6"/>
<rect x="1251.22" y="27" width="16.3062" height="43.7839" rx="1.88764" fill="#FFA9A6"/>
<rect x="1383.48" y="27" width="16.3062" height="43.7839" rx="1.88764" fill="#FFA9A6"/>
<path d="M1039.53 105H1002V115H1071.55H1485V105H1060.75H1039.53Z" fill="white"/>
</svg>
